<?xml version="1.0" encoding="UTF-8"?>
<svg id="Layer_2" data-name="Layer 2" xmlns="http://www.w3.org/2000/svg" viewBox="0 0 355.89 57.85">
  <defs>
    <style>
      .cls-1 {
        fill: red;
      }

      .cls-1, .cls-2 {
        stroke-width: 0px;
      }

      .cls-2 {
        fill: #2e3192;
      }
    </style>
  </defs>
  <g id="Layer_1-2" data-name="Layer 1">
    <path class="cls-2" d="M0,57.85L22.46,7.45h11.52l22.54,50.4h-12.24L25.85,13.35h4.61L11.95,57.85H0ZM11.23,47.05l3.1-8.86h25.92l3.17,8.86H11.23Z"/>
    <path class="cls-2" d="M61.78,57.85V7.45h11.66v40.9h25.27v9.5h-36.94Z"/>
    <path class="cls-1" d="M105.26,57.85V0h11.66v57.85h-11.66Z"/>
    <path class="cls-2" d="M139.89,57.85L123.41,7.45h12.1l14.33,44.64h-6.05l14.98-44.64h10.8l14.4,44.64h-5.83l14.69-44.64h11.16l-16.49,50.4h-12.53l-12.74-39.17h3.31l-13.1,39.17h-12.53Z"/>
    <path class="cls-2" d="M202.17,57.85l22.46-50.4h11.52l22.54,50.4h-12.24l-18.43-44.5h4.61l-18.5,44.5h-11.95ZM213.41,47.05l3.1-8.86h25.92l3.17,8.86h-32.18Z"/>
    <path class="cls-2" d="M263.95,57.85V7.45h21.53c7.01,0,12.46,1.62,16.34,4.86,3.89,3.24,5.83,7.72,5.83,13.43,0,3.74-.89,6.97-2.66,9.68-1.78,2.71-4.3,4.79-7.56,6.23-3.26,1.44-7.15,2.16-11.66,2.16h-15.34l5.18-5.11v19.15h-11.66ZM275.61,39.99l-5.18-5.47h14.69c3.6,0,6.29-.78,8.06-2.34,1.78-1.56,2.66-3.71,2.66-6.44s-.89-4.94-2.66-6.48c-1.78-1.54-4.46-2.3-8.06-2.3h-14.69l5.18-5.54v28.58ZM295.99,57.85l-12.6-18.29h12.46l12.74,18.29h-12.6Z"/>
    <path class="cls-2" d="M316.87,57.85V7.45h38.09v9.36h-26.5v31.68h27.43v9.36h-39.02ZM327.6,36.83v-9.07h24.26v9.07h-24.26Z"/>
  </g>
</svg>